<svg width="12" height="12" viewBox="0 0 12 12" fill="none" xmlns="http://www.w3.org/2000/svg">
<path fill-rule="evenodd" clip-rule="evenodd" d="M0.350685 2.91361C0.350685 2.539 0.654365 2.23532 1.02897 2.23532L4.75956 2.23532C5.13417 2.23532 5.43785 2.539 5.43785 2.91361C5.43785 3.28822 5.13417 3.5919 4.75956 3.5919L1.70726 3.5919L1.70726 10.3748H8.49014L8.49014 7.09639C8.49014 6.72178 8.79382 6.4181 9.16843 6.4181C9.54304 6.4181 9.84672 6.72178 9.84672 7.09638V11.0531C9.84672 11.4277 9.54304 11.7314 9.16843 11.7314L1.02897 11.7314C0.654365 11.7314 0.350685 11.4277 0.350685 11.0531L0.350685 2.91361ZM6.99791 1.0642C6.99791 0.66209 7.32389 0.336114 7.726 0.336114L11.0178 0.336114C11.4199 0.336114 11.7459 0.66209 11.7459 1.0642L11.7459 4.35604C11.7459 4.75815 11.42 5.08413 11.0178 5.08413C10.6157 5.08413 10.2897 4.75815 10.2897 4.35604V2.89275L6.54269 6.63981C6.26455 6.91794 5.81361 6.91794 5.53548 6.63981C5.25735 6.36168 5.25735 5.91074 5.53548 5.6326L9.37579 1.79229L7.726 1.79229C7.32389 1.79229 6.99791 1.46631 6.99791 1.0642Z" fill="#CF8A05"/>
</svg>
